<svg width="16" height="16" viewBox="0 0 16 16" fill="none" xmlns="http://www.w3.org/2000/svg">
<path d="M7.99984 2.6665C8.70708 2.6665 9.38536 2.94746 9.88546 3.44755C10.3856 3.94765 10.6665 4.62593 10.6665 5.33317C10.6665 6.04041 10.3856 6.71869 9.88546 7.21879C9.38536 7.71889 8.70708 7.99984 7.99984 7.99984C7.29259 7.99984 6.61432 7.71889 6.11422 7.21879C5.61412 6.71869 5.33317 6.04041 5.33317 5.33317C5.33317 4.62593 5.61412 3.94765 6.11422 3.44755C6.61432 2.94746 7.29259 2.6665 7.99984 2.6665ZM7.99984 3.99984C7.64622 3.99984 7.30708 4.14031 7.05703 4.39036C6.80698 4.64041 6.6665 4.97955 6.6665 5.33317C6.6665 5.68679 6.80698 6.02593 7.05703 6.27598C7.30708 6.52603 7.64622 6.6665 7.99984 6.6665C8.35346 6.6665 8.6926 6.52603 8.94265 6.27598C9.19269 6.02593 9.33317 5.68679 9.33317 5.33317C9.33317 4.97955 9.19269 4.64041 8.94265 4.39036C8.6926 4.14031 8.35346 3.99984 7.99984 3.99984ZM7.99984 8.6665C9.77984 8.6665 13.3332 9.55317 13.3332 11.3332V13.3332H2.6665V11.3332C2.6665 9.55317 6.21984 8.6665 7.99984 8.6665ZM7.99984 9.93317C6.01984 9.93317 3.93317 10.9065 3.93317 11.3332V12.0665H12.0665V11.3332C12.0665 10.9065 9.97984 9.93317 7.99984 9.93317Z" fill="#292929"/>
</svg>
