<svg width="14" height="12" viewBox="0 0 14 12" fill="none" xmlns="http://www.w3.org/2000/svg">
<path d="M5.10291 11.6875H4.37502C4.30189 11.6875 4.22992 11.6691 4.16571 11.6341C4.1015 11.5991 4.04709 11.5485 4.00746 11.4871C3.96783 11.4256 3.94424 11.3552 3.93886 11.2822C3.93347 11.2093 3.94646 11.1362 3.97663 11.0695L5.7392 7.17988L3.0926 7.12109L2.12737 8.29059C1.94334 8.52191 1.79651 8.625 1.4219 8.625H0.931899C0.854317 8.6275 0.777277 8.61125 0.707306 8.57765C0.637335 8.54405 0.576497 8.49407 0.529946 8.43195C0.464868 8.34418 0.400884 8.19543 0.463227 7.98324L1.00518 6.04184C1.00928 6.02734 1.0142 6.01285 1.01967 5.99863C1.01995 5.99728 1.01995 5.99588 1.01967 5.99453C1.01403 5.98032 1.00919 5.96581 1.00518 5.95106L0.46268 3.99734C0.403891 3.78926 0.468149 3.64379 0.53268 3.5582C0.576014 3.5007 0.632234 3.45417 0.696821 3.42236C0.761408 3.39054 0.832559 3.37432 0.904555 3.375H1.4219C1.70163 3.375 1.97315 3.50051 2.13284 3.70312L3.07811 4.85293L5.7392 4.81355L3.97717 0.930742C3.94696 0.864147 3.93393 0.791041 3.93926 0.718107C3.94459 0.645174 3.96811 0.57474 4.00769 0.513245C4.04726 0.451751 4.10162 0.401156 4.16579 0.366088C4.22996 0.331019 4.3019 0.312595 4.37502 0.3125H5.11084C5.2135 0.314563 5.31437 0.339724 5.40597 0.386115C5.49757 0.432506 5.57754 0.498935 5.63995 0.580469L9.05928 4.73672L10.6389 4.69516C10.7546 4.68887 11.0751 4.68668 11.1492 4.68668C12.6602 4.6875 13.5625 5.17805 13.5625 6C13.5625 6.25867 13.4592 6.73828 12.7676 7.04344C12.3594 7.22391 11.8147 7.31523 11.1486 7.31523C11.0753 7.31523 10.7557 7.31305 10.6384 7.30676L9.05901 7.26465L5.6312 11.4209C5.56874 11.5021 5.48884 11.5682 5.3974 11.6143C5.30596 11.6605 5.20532 11.6855 5.10291 11.6875Z" fill="#34495E"/>
</svg>
