<svg width="16" height="16" viewBox="0 0 16 16" fill="none" xmlns="http://www.w3.org/2000/svg">
<path d="M6.66663 1.33934C5.01329 1.36334 4.07663 1.48601 3.44796 2.11467C2.66663 2.89534 2.66663 4.15267 2.66663 6.66667V8.00001C2.66663 10.514 2.66663 11.7713 3.44796 12.552C4.22863 13.3333 5.48596 13.3333 7.99996 13.3333C10.514 13.3333 11.7713 13.3333 12.552 12.552C13.3333 11.7713 13.3333 10.514 13.3333 8.00001V6.66667C13.3333 4.15267 13.3333 2.89534 12.552 2.11467C11.9233 1.48601 10.9866 1.36334 9.33329 1.33934" stroke="black" stroke-linecap="round"/>
<path d="M10.6666 8.66667H13.3333L14.4 7.86667C14.4828 7.80457 14.55 7.72405 14.5963 7.63148C14.6425 7.53891 14.6666 7.43683 14.6666 7.33333V6.66667C14.6666 6.48986 14.5964 6.32029 14.4714 6.19526C14.3464 6.07024 14.1768 6 14 6H13.3333M7.99998 8.66667H2.66665L1.59998 7.86667C1.51718 7.80457 1.44998 7.72405 1.40369 7.63148C1.35741 7.53891 1.33331 7.43683 1.33331 7.33333V6.66667C1.33331 6.48986 1.40355 6.32029 1.52858 6.19526C1.6536 6.07024 1.82317 6 1.99998 6H2.66665M10.3333 10.6667H11.3333M4.66665 10.6667H5.66665M3.99998 13V14C3.99998 14.1768 4.07022 14.3464 4.19524 14.4714C4.32027 14.5964 4.48984 14.6667 4.66665 14.6667H5.66665C5.84346 14.6667 6.01303 14.5964 6.13805 14.4714C6.26308 14.3464 6.33331 14.1768 6.33331 14V13.3333M12 13V14C12 14.1768 11.9297 14.3464 11.8047 14.4714C11.6797 14.5964 11.5101 14.6667 11.3333 14.6667H10.3333C10.1565 14.6667 9.98693 14.5964 9.86191 14.4714C9.73688 14.3464 9.66665 14.1768 9.66665 14V13.3333" stroke="black" stroke-linecap="round" stroke-linejoin="round"/>
<path d="M3 3.33334H5.5M13 3.33334H8" stroke="black" stroke-linecap="round"/>
</svg>
