<svg width="12" height="14" viewBox="0 0 12 14" fill="none" xmlns="http://www.w3.org/2000/svg">
<path d="M1.33333 13.6667C0.966668 13.6667 0.652668 13.536 0.391334 13.2747C0.130001 13.0133 -0.000443313 12.6996 1.13186e-06 12.3333V3.00001C1.13186e-06 2.63334 0.130668 2.31934 0.392001 2.05801C0.653334 1.79668 0.967112 1.66623 1.33333 1.66668H2V0.333344H3.33333V1.66668H8.66667V0.333344H10V1.66668H10.6667C11.0333 1.66668 11.3473 1.79734 11.6087 2.05868C11.87 2.32001 12.0004 2.63379 12 3.00001V12.3333C12 12.7 11.8693 13.014 11.608 13.2753C11.3467 13.5367 11.0329 13.6671 10.6667 13.6667H1.33333ZM1.33333 12.3333H10.6667V5.66668H1.33333V12.3333ZM1.33333 4.33334H10.6667V3.00001H1.33333V4.33334Z" fill="#828181"/>
</svg>
