<svg width="14" height="14" viewBox="0 0 14 14" fill="none" xmlns="http://www.w3.org/2000/svg">
<path d="M0.335938 11.6668C0.335938 12.8002 1.2026 13.6668 2.33594 13.6668H11.6693C12.8026 13.6668 13.6693 12.8002 13.6693 11.6668V6.3335H0.335938V11.6668ZM11.6693 1.66683H10.3359V1.00016C10.3359 0.600163 10.0693 0.333496 9.66927 0.333496C9.26927 0.333496 9.0026 0.600163 9.0026 1.00016V1.66683H5.0026V1.00016C5.0026 0.600163 4.73594 0.333496 4.33594 0.333496C3.93594 0.333496 3.66927 0.600163 3.66927 1.00016V1.66683H2.33594C1.2026 1.66683 0.335938 2.5335 0.335938 3.66683V5.00016H13.6693V3.66683C13.6693 2.5335 12.8026 1.66683 11.6693 1.66683Z" fill="#E67E22"/>
</svg>
