<svg width="24" height="24" viewBox="0 0 24 24" fill="none" xmlns="http://www.w3.org/2000/svg">
<rect width="24" height="24" rx="4" fill="#34495E"/>
<g clip-path="url(#clip0_3299_3464)">
<path d="M17.6008 4.7998H6.40078C5.52078 4.7998 4.80078 5.5198 4.80078 6.3998V17.5998C4.80078 18.4806 5.52078 19.1998 6.40078 19.1998H12.0008V13.5998H10.4008V11.6198H12.0008V9.9798C12.0008 8.2486 12.9704 7.0326 15.0136 7.0326L16.456 7.0342V9.1182H15.4984C14.7032 9.1182 14.4008 9.715 14.4008 10.2686V11.6206H16.4552L16.0008 13.5998H14.4008V19.1998H17.6008C18.4808 19.1998 19.2008 18.4806 19.2008 17.5998V6.3998C19.2008 5.5198 18.4808 4.7998 17.6008 4.7998Z" fill="#EFEFEF"/>
</g>
<defs>
<clipPath id="clip0_3299_3464">
<rect width="16" height="16" fill="white" transform="translate(4 4)"/>
</clipPath>
</defs>
</svg>
