<svg width="12" height="14" viewBox="0 0 12 14" fill="none" xmlns="http://www.w3.org/2000/svg">
<path d="M4.00008 2.33333C3.82327 2.33333 3.6537 2.40357 3.52868 2.5286C3.40365 2.65362 3.33341 2.82319 3.33341 3C3.33341 3.17681 3.40365 3.34638 3.52868 3.4714C3.6537 3.59643 3.82327 3.66667 4.00008 3.66667C4.17689 3.66667 4.34646 3.59643 4.47149 3.4714C4.59651 3.34638 4.66675 3.17681 4.66675 3C4.66675 2.82319 4.59651 2.65362 4.47149 2.5286C4.34646 2.40357 4.17689 2.33333 4.00008 2.33333ZM2.11341 2.33333C2.25115 1.94298 2.50657 1.60496 2.84448 1.36586C3.18239 1.12676 3.58614 0.998366 4.00008 0.998366C4.41402 0.998366 4.81777 1.12676 5.15568 1.36586C5.49359 1.60496 5.74901 1.94298 5.88675 2.33333H10.6667C10.8436 2.33333 11.0131 2.40357 11.1382 2.5286C11.2632 2.65362 11.3334 2.82319 11.3334 3C11.3334 3.17681 11.2632 3.34638 11.1382 3.4714C11.0131 3.59643 10.8436 3.66667 10.6667 3.66667H5.88675C5.74901 4.05702 5.49359 4.39504 5.15568 4.63414C4.81777 4.87324 4.41402 5.00163 4.00008 5.00163C3.58614 5.00163 3.18239 4.87324 2.84448 4.63414C2.50657 4.39504 2.25115 4.05702 2.11341 3.66667H1.33341C1.1566 3.66667 0.987035 3.59643 0.86201 3.4714C0.736986 3.34638 0.666748 3.17681 0.666748 3C0.666748 2.82319 0.736986 2.65362 0.86201 2.5286C0.987035 2.40357 1.1566 2.33333 1.33341 2.33333H2.11341ZM8.00008 6.33333C7.82327 6.33333 7.6537 6.40357 7.52868 6.5286C7.40365 6.65362 7.33342 6.82319 7.33342 7C7.33342 7.17681 7.40365 7.34638 7.52868 7.4714C7.6537 7.59643 7.82327 7.66667 8.00008 7.66667C8.17689 7.66667 8.34646 7.59643 8.47149 7.4714C8.59651 7.34638 8.66675 7.17681 8.66675 7C8.66675 6.82319 8.59651 6.65362 8.47149 6.5286C8.34646 6.40357 8.17689 6.33333 8.00008 6.33333ZM6.11341 6.33333C6.25115 5.94298 6.50657 5.60496 6.84448 5.36586C7.18239 5.12676 7.58614 4.99837 8.00008 4.99837C8.41402 4.99837 8.81777 5.12676 9.15568 5.36586C9.49359 5.60496 9.74901 5.94298 9.88675 6.33333H10.6667C10.8436 6.33333 11.0131 6.40357 11.1382 6.5286C11.2632 6.65362 11.3334 6.82319 11.3334 7C11.3334 7.17681 11.2632 7.34638 11.1382 7.4714C11.0131 7.59643 10.8436 7.66667 10.6667 7.66667H9.88675C9.74901 8.05702 9.49359 8.39504 9.15568 8.63414C8.81777 8.87324 8.41402 9.00163 8.00008 9.00163C7.58614 9.00163 7.18239 8.87324 6.84448 8.63414C6.50657 8.39504 6.25115 8.05702 6.11341 7.66667H1.33341C1.1566 7.66667 0.987035 7.59643 0.86201 7.4714C0.736986 7.34638 0.666748 7.17681 0.666748 7C0.666748 6.82319 0.736986 6.65362 0.86201 6.5286C0.987035 6.40357 1.1566 6.33333 1.33341 6.33333H6.11341ZM4.00008 10.3333C3.82327 10.3333 3.6537 10.4036 3.52868 10.5286C3.40365 10.6536 3.33341 10.8232 3.33341 11C3.33341 11.1768 3.40365 11.3464 3.52868 11.4714C3.6537 11.5964 3.82327 11.6667 4.00008 11.6667C4.17689 11.6667 4.34646 11.5964 4.47149 11.4714C4.59651 11.3464 4.66675 11.1768 4.66675 11C4.66675 10.8232 4.59651 10.6536 4.47149 10.5286C4.34646 10.4036 4.17689 10.3333 4.00008 10.3333ZM2.11341 10.3333C2.25115 9.94298 2.50657 9.60496 2.84448 9.36586C3.18239 9.12676 3.58614 8.99837 4.00008 8.99837C4.41402 8.99837 4.81777 9.12676 5.15568 9.36586C5.49359 9.60496 5.74901 9.94298 5.88675 10.3333H10.6667C10.8436 10.3333 11.0131 10.4036 11.1382 10.5286C11.2632 10.6536 11.3334 10.8232 11.3334 11C11.3334 11.1768 11.2632 11.3464 11.1382 11.4714C11.0131 11.5964 10.8436 11.6667 10.6667 11.6667H5.88675C5.74901 12.057 5.49359 12.395 5.15568 12.6341C4.81777 12.8732 4.41402 13.0016 4.00008 13.0016C3.58614 13.0016 3.18239 12.8732 2.84448 12.6341C2.50657 12.395 2.25115 12.057 2.11341 11.6667H1.33341C1.1566 11.6667 0.987035 11.5964 0.86201 11.4714C0.736986 11.3464 0.666748 11.1768 0.666748 11C0.666748 10.8232 0.736986 10.6536 0.86201 10.5286C0.987035 10.4036 1.1566 10.3333 1.33341 10.3333H2.11341Z" fill="#ED1D24"/>
</svg>
