<svg width="20" height="20" viewBox="0 0 20 20" fill="none" xmlns="http://www.w3.org/2000/svg">
<circle cx="10" cy="10" r="10" fill="#F27A00"/>
<path d="M10.83 6.15C10.8069 6.03706 10.7456 5.93556 10.6563 5.86267C10.567 5.78978 10.4553 5.74998 10.34 5.75H6.75C6.61739 5.75 6.49021 5.80268 6.39645 5.89645C6.30268 5.99021 6.25 6.11739 6.25 6.25V13.75C6.25 13.8826 6.30268 14.0098 6.39645 14.1036C6.49021 14.1973 6.61739 14.25 6.75 14.25C6.88261 14.25 7.00979 14.1973 7.10355 14.1036C7.19732 14.0098 7.25 13.8826 7.25 13.75V10.75H10.05L10.17 11.35C10.215 11.584 10.4215 11.7525 10.66 11.75H13.25C13.3826 11.75 13.5098 11.6973 13.6036 11.6036C13.6973 11.5098 13.75 11.3826 13.75 11.25V7.25C13.75 7.11739 13.6973 6.99021 13.6036 6.89645C13.5098 6.80268 13.3826 6.75 13.25 6.75H10.95L10.83 6.15Z" fill="white"/>
</svg>
