<svg width="12" height="12" viewBox="0 0 12 12" fill="none" xmlns="http://www.w3.org/2000/svg">
<path d="M5.99999 0.666656C6.70723 0.666656 7.38551 0.947608 7.88561 1.4477C8.38571 1.9478 8.66666 2.62608 8.66666 3.33332C8.66666 4.04057 8.38571 4.71884 7.88561 5.21894C7.38551 5.71904 6.70723 5.99999 5.99999 5.99999C5.29275 5.99999 4.61447 5.71904 4.11437 5.21894C3.61427 4.71884 3.33332 4.04057 3.33332 3.33332C3.33332 2.62608 3.61427 1.9478 4.11437 1.4477C4.61447 0.947608 5.29275 0.666656 5.99999 0.666656ZM5.99999 1.99999C5.64637 1.99999 5.30723 2.14047 5.05718 2.39051C4.80713 2.64056 4.66666 2.9797 4.66666 3.33332C4.66666 3.68695 4.80713 4.02608 5.05718 4.27613C5.30723 4.52618 5.64637 4.66666 5.99999 4.66666C6.35361 4.66666 6.69275 4.52618 6.9428 4.27613C7.19285 4.02608 7.33332 3.68695 7.33332 3.33332C7.33332 2.9797 7.19285 2.64056 6.9428 2.39051C6.69275 2.14047 6.35361 1.99999 5.99999 1.99999ZM5.99999 6.66666C7.77999 6.66666 11.3333 7.55332 11.3333 9.33332V11.3333H0.666656V9.33332C0.666656 7.55332 4.21999 6.66666 5.99999 6.66666ZM5.99999 7.93332C4.01999 7.93332 1.93332 8.90666 1.93332 9.33332V10.0667H10.0667V9.33332C10.0667 8.90666 7.97999 7.93332 5.99999 7.93332Z" fill="#828181"/>
</svg>
