<svg width="12" height="16" viewBox="0 0 12 16" fill="none" xmlns="http://www.w3.org/2000/svg">
<path d="M6 0.666672L0 3.33334V7.33334C0 11.0333 2.56 14.4933 6 15.3333C9.44 14.4933 12 11.0333 12 7.33334V3.33334L6 0.666672ZM6 2.12001L10.6667 4.20001V7.48001C10.6667 8.61334 10.3333 9.76667 9.76667 10.78C8.66667 9.96001 6.84 9.66667 6 9.66667C5.16 9.66667 3.33333 9.96001 2.23333 10.78C1.66667 9.76667 1.33333 8.61334 1.33333 7.48001V4.20001L6 2.12001ZM6 4.00001C5.38116 4.00001 4.78767 4.24584 4.35008 4.68342C3.9125 5.12101 3.66667 5.7145 3.66667 6.33334C3.66667 6.95218 3.9125 7.54567 4.35008 7.98325C4.78767 8.42084 5.38116 8.66667 6 8.66667C6.61884 8.66667 7.21233 8.42084 7.64992 7.98325C8.0875 7.54567 8.33333 6.95218 8.33333 6.33334C8.33333 5.7145 8.0875 5.12101 7.64992 4.68342C7.21233 4.24584 6.61884 4.00001 6 4.00001ZM6 5.33334C6.26522 5.33334 6.51957 5.4387 6.70711 5.62623C6.89464 5.81377 7 6.06812 7 6.33334C7 6.59856 6.89464 6.85291 6.70711 7.04045C6.51957 7.22798 6.26522 7.33334 6 7.33334C5.73478 7.33334 5.48043 7.22798 5.29289 7.04045C5.10536 6.85291 5 6.59856 5 6.33334C5 6.06812 5.10536 5.81377 5.29289 5.62623C5.48043 5.4387 5.73478 5.33334 6 5.33334ZM6 11C7.04667 11 8.42667 11.4067 9.02 11.8933C8.19333 12.92 7.13333 13.7 6 14C4.86667 13.7 3.80667 12.92 2.98 11.8933C3.58 11.4067 4.95333 11 6 11Z" fill="black"/>
</svg>
