<svg width="20" height="20" viewBox="0 0 20 20" fill="none" xmlns="http://www.w3.org/2000/svg">
<circle cx="10" cy="10" r="10" fill="#424242"/>
<path d="M9.25 5.75C9.25 5.55109 9.32902 5.36032 9.46967 5.21967C9.61032 5.07902 9.80109 5 10 5C10.1989 5 10.3897 5.07902 10.5303 5.21967C10.671 5.36032 10.75 5.55109 10.75 5.75V11.75C10.75 11.9489 10.671 12.1397 10.5303 12.2803C10.3897 12.421 10.1989 12.5 10 12.5C9.80109 12.5 9.61032 12.421 9.46967 12.2803C9.32902 12.1397 9.25 11.9489 9.25 11.75V5.75ZM9.25 14.25C9.25 14.0511 9.32902 13.8603 9.46967 13.7197C9.61032 13.579 9.80109 13.5 10 13.5C10.1989 13.5 10.3897 13.579 10.5303 13.7197C10.671 13.8603 10.75 14.0511 10.75 14.25C10.75 14.4489 10.671 14.6397 10.5303 14.7803C10.3897 14.921 10.1989 15 10 15C9.80109 15 9.61032 14.921 9.46967 14.7803C9.32902 14.6397 9.25 14.4489 9.25 14.25Z" fill="white"/>
</svg>
