<svg width="24" height="24" viewBox="0 0 24 24" fill="none" xmlns="http://www.w3.org/2000/svg">
<rect width="24" height="24" rx="4" fill="#34495E"/>
<path d="M12.6844 5.3335C13.4344 5.3355 13.8151 5.3395 14.1437 5.34883L14.2731 5.3535C14.4224 5.35883 14.5697 5.3655 14.7477 5.3735C15.4571 5.40683 15.9411 5.51883 16.3657 5.6835C16.8057 5.85283 17.1764 6.08216 17.5471 6.45216C17.8862 6.78532 18.1485 7.18848 18.3157 7.6335C18.4804 8.05816 18.5924 8.54216 18.6257 9.25216C18.6337 9.4295 18.6404 9.57683 18.6457 9.72683L18.6497 9.85616C18.6597 10.1842 18.6637 10.5648 18.6651 11.3148L18.6657 11.8122V12.6855C18.6674 13.1718 18.6623 13.658 18.6504 14.1442L18.6464 14.2735C18.6411 14.4235 18.6344 14.5708 18.6264 14.7482C18.5931 15.4582 18.4797 15.9415 18.3157 16.3668C18.1485 16.8118 17.8862 17.215 17.5471 17.5482C17.2139 17.8873 16.8108 18.1496 16.3657 18.3168C15.9411 18.4815 15.4571 18.5935 14.7477 18.6268L14.2731 18.6468L14.1437 18.6508C13.8151 18.6602 13.4344 18.6648 12.6844 18.6662L12.1871 18.6668H11.3144C10.8279 18.6685 10.3414 18.6634 9.85508 18.6515L9.72574 18.6475C9.56748 18.6415 9.40926 18.6346 9.25108 18.6268C8.54174 18.5935 8.05774 18.4815 7.63241 18.3168C7.18763 18.1495 6.78471 17.8872 6.45174 17.5482C6.11237 17.2151 5.84982 16.8119 5.68241 16.3668C5.51774 15.9422 5.40574 15.4582 5.37241 14.7482L5.35241 14.2735L5.34908 14.1442C5.33679 13.658 5.33123 13.1718 5.33241 12.6855V11.3148C5.33057 10.8286 5.33545 10.3423 5.34708 9.85616L5.35174 9.72683C5.35708 9.57683 5.36374 9.4295 5.37174 9.25216C5.40508 8.54216 5.51708 8.05883 5.68174 7.6335C5.84954 7.1883 6.11256 6.78512 6.45241 6.45216C6.78518 6.1132 7.18787 5.85088 7.63241 5.6835C8.05774 5.51883 8.54108 5.40683 9.25108 5.3735C9.42841 5.3655 9.57641 5.35883 9.72574 5.3535L9.85508 5.3495C10.3412 5.33765 10.8275 5.33254 11.3137 5.33416L12.6844 5.3335ZM11.9991 8.66683C11.115 8.66683 10.2672 9.01802 9.64205 9.64314C9.01693 10.2683 8.66574 11.1161 8.66574 12.0002C8.66574 12.8842 9.01693 13.7321 9.64205 14.3572C10.2672 14.9823 11.115 15.3335 11.9991 15.3335C12.8831 15.3335 13.731 14.9823 14.3561 14.3572C14.9812 13.7321 15.3324 12.8842 15.3324 12.0002C15.3324 11.1161 14.9812 10.2683 14.3561 9.64314C13.731 9.01802 12.8831 8.66683 11.9991 8.66683ZM11.9991 10.0002C12.2617 10.0001 12.5218 10.0518 12.7645 10.1523C13.0071 10.2527 13.2276 10.4 13.4134 10.5857C13.5991 10.7714 13.7465 10.9919 13.847 11.2345C13.9476 11.4771 13.9994 11.7372 13.9994 11.9998C13.9995 12.2625 13.9478 12.5226 13.8473 12.7652C13.7468 13.0079 13.5995 13.2284 13.4139 13.4141C13.2282 13.5999 13.0077 13.7472 12.7651 13.8478C12.5225 13.9483 12.2624 14.0001 11.9997 14.0002C11.4693 14.0002 10.9606 13.7894 10.5855 13.4144C10.2105 13.0393 9.99974 12.5306 9.99974 12.0002C9.99974 11.4697 10.2105 10.961 10.5855 10.5859C10.9606 10.2109 11.4693 10.0002 11.9997 10.0002M15.4997 7.66683C15.2787 7.66683 15.0668 7.75463 14.9105 7.91091C14.7542 8.06719 14.6664 8.27915 14.6664 8.50016C14.6664 8.72118 14.7542 8.93314 14.9105 9.08942C15.0668 9.2457 15.2787 9.3335 15.4997 9.3335C15.7208 9.3335 15.9327 9.2457 16.089 9.08942C16.2453 8.93314 16.3331 8.72118 16.3331 8.50016C16.3331 8.27915 16.2453 8.06719 16.089 7.91091C15.9327 7.75463 15.7208 7.66683 15.4997 7.66683Z" fill="#EFEFEF"/>
</svg>
