<svg width="20" height="20" viewBox="0 0 20 20" fill="none" xmlns="http://www.w3.org/2000/svg">
<circle cx="10" cy="10" r="10" fill="#74D153"/>
<g clip-path="url(#clip0_1356_554)">
<path d="M10.4938 15.725C11.5625 14.3457 14 11.0027 14 9.125C14 6.84766 12.2083 5 10 5C7.79167 5 6 6.84766 6 9.125C6 11.0027 8.4375 14.3457 9.50625 15.725C9.7625 16.0537 10.2375 16.0537 10.4938 15.725ZM10 10.5C9.26458 10.5 8.66667 9.8834 8.66667 9.125C8.66667 8.3666 9.26458 7.75 10 7.75C10.7354 7.75 11.3333 8.3666 11.3333 9.125C11.3333 9.8834 10.7354 10.5 10 10.5Z" fill="white"/>
</g>
<defs>
<clipPath id="clip0_1356_554">
<rect width="8" height="11" fill="white" transform="translate(6 5)"/>
</clipPath>
</defs>
</svg>
