<svg width="10" height="14" viewBox="0 0 10 14" fill="none" xmlns="http://www.w3.org/2000/svg">
<path d="M5.0026 6.66671C4.56058 6.66671 4.13665 6.49111 3.82409 6.17855C3.51153 5.86599 3.33594 5.44207 3.33594 5.00004C3.33594 4.55801 3.51153 4.13409 3.82409 3.82153C4.13665 3.50897 4.56058 3.33337 5.0026 3.33337C5.44463 3.33337 5.86856 3.50897 6.18112 3.82153C6.49368 4.13409 6.66927 4.55801 6.66927 5.00004C6.66927 5.21891 6.62616 5.43564 6.5424 5.63785C6.45865 5.84006 6.33588 6.02379 6.18112 6.17855C6.02635 6.33332 5.84262 6.45608 5.64041 6.53984C5.4382 6.6236 5.22147 6.66671 5.0026 6.66671ZM5.0026 0.333374C3.76493 0.333374 2.57794 0.825039 1.70277 1.70021C0.827603 2.57538 0.335938 3.76236 0.335938 5.00004C0.335938 8.50004 5.0026 13.6667 5.0026 13.6667C5.0026 13.6667 9.66927 8.50004 9.66927 5.00004C9.66927 3.76236 9.17761 2.57538 8.30244 1.70021C7.42727 0.825039 6.24028 0.333374 5.0026 0.333374Z" fill="#34495E"/>
</svg>
