<svg width="16" height="16" viewBox="0 0 16 16" fill="none" xmlns="http://www.w3.org/2000/svg">
<path d="M4.0013 1.33337C3.64768 1.33337 3.30854 1.47385 3.05849 1.7239C2.80844 1.97395 2.66797 2.31309 2.66797 2.66671V13.3334C2.66797 13.687 2.80844 14.0261 3.05849 14.2762C3.30854 14.5262 3.64768 14.6667 4.0013 14.6667H12.0013C12.3549 14.6667 12.6941 14.5262 12.9441 14.2762C13.1942 14.0261 13.3346 13.687 13.3346 13.3334V2.66671C13.3346 2.31309 13.1942 1.97395 12.9441 1.7239C12.6941 1.47385 12.3549 1.33337 12.0013 1.33337H4.0013ZM8.0013 3.33337C8.88536 3.33337 9.7332 3.68456 10.3583 4.30968C10.9834 4.93481 11.3346 5.78265 11.3346 6.66671C11.3346 7.55076 10.9834 8.39861 10.3583 9.02373C9.7332 9.64885 8.88536 10 8.0013 10C7.11725 10 6.2694 9.64885 5.64428 9.02373C5.01916 8.39861 4.66797 7.55076 4.66797 6.66671C4.66797 5.78265 5.01916 4.93481 5.64428 4.30968C6.2694 3.68456 7.11725 3.33337 8.0013 3.33337ZM8.0013 4.00004C7.72797 4.41337 7.5013 4.86004 7.3613 5.33337H8.6413C8.49813 4.85854 8.28224 4.40875 8.0013 4.00004ZM7.13464 4.14671C6.5213 4.35337 6.0013 4.78004 5.69464 5.33337H6.66797C6.78797 4.92004 6.93464 4.52004 7.13464 4.14671ZM8.8613 4.14671C9.0613 4.52004 9.21464 4.92004 9.33464 5.33337H10.308C10.0013 4.78004 9.47464 4.36004 8.8613 4.14671ZM5.4213 6.00004C5.36797 6.21337 5.33464 6.43337 5.33464 6.66671C5.33464 6.90004 5.36797 7.12004 5.4213 7.33337H6.54797C6.5213 7.11337 6.5013 6.89337 6.5013 6.66671C6.5013 6.44004 6.5213 6.22004 6.54797 6.00004H5.4213ZM7.2213 6.00004C7.18797 6.21337 7.16797 6.44004 7.16797 6.66671C7.16797 6.89337 7.18797 7.11337 7.2213 7.33337H8.7813C8.80797 7.11337 8.83464 6.89337 8.83464 6.66671C8.83464 6.44004 8.80797 6.21337 8.7813 6.00004H7.2213ZM9.45464 6.00004C9.4813 6.22004 9.5013 6.44004 9.5013 6.66671C9.5013 6.89337 9.4813 7.11337 9.45464 7.33337H10.5813C10.6346 7.12004 10.668 6.90004 10.668 6.66671C10.668 6.43337 10.6346 6.21337 10.5813 6.00004H9.45464ZM5.69464 8.00004C6.0013 8.55337 6.5213 8.97337 7.13464 9.18671C6.93464 8.81337 6.78797 8.42004 6.66797 8.00004H5.69464ZM7.3613 8.00004C7.5013 8.48004 7.72797 8.92004 8.0013 9.33337C8.2813 8.92004 8.5013 8.48004 8.6413 8.00004H7.3613ZM9.33464 8.00004C9.21464 8.42004 9.0613 8.81337 8.8613 9.18671C9.47464 8.97337 10.0013 8.55337 10.308 8.00004H9.33464ZM4.66797 11.3334H11.3346V12.6667H4.66797V11.3334Z" fill="white"/>
</svg>
