<svg width="16" height="16" viewBox="0 0 16 16" fill="none" xmlns="http://www.w3.org/2000/svg">
<path d="M2.66797 6.99733V10C2.66797 10.5304 2.87868 11.0391 3.25376 11.4142C3.62883 11.7893 4.13754 12 4.66797 12H11.3346C11.8651 12 12.3738 11.7893 12.7488 11.4142C13.1239 11.0391 13.3346 10.5304 13.3346 10V6.99733L8.27464 9.27467C8.18869 9.3133 8.09553 9.33328 8.0013 9.33328C7.90707 9.33328 7.81391 9.3133 7.72797 9.27467L2.66797 6.99733ZM2.7173 5.55733L8.0013 7.936L13.2853 5.55733C13.1849 5.11503 12.9372 4.71999 12.5827 4.43701C12.2283 4.15404 11.7882 3.99994 11.3346 4H4.66797C4.21442 3.99994 3.77432 4.15404 3.41987 4.43701C3.06543 4.71999 2.81769 5.11503 2.7173 5.55733Z" fill="#EFEFEF"/>
</svg>
