<svg width="11" height="7" viewBox="0 0 11 7" fill="none" xmlns="http://www.w3.org/2000/svg">
<path d="M7.41333 0.479986C7.33023 0.395707 7.21705 0.34789 7.0987 0.347057C6.98034 0.346223 6.8665 0.392441 6.78222 0.475542C6.69794 0.558643 6.65012 0.671821 6.64929 0.790177C6.64846 0.908534 6.69467 1.02237 6.77778 1.10665L8.43111 2.77776H0.479997C0.362123 2.77776 0.249077 2.82459 0.165728 2.90794C0.0823783 2.99129 0.035553 3.10433 0.035553 3.22221C0.035553 3.34008 0.0823783 3.45313 0.165728 3.53648C0.249077 3.61983 0.362123 3.66665 0.479997 3.66665H8.43111L6.77778 5.3111C6.73663 5.35254 6.70405 5.40167 6.68189 5.45571C6.65973 5.50974 6.64843 5.5676 6.64864 5.626C6.64885 5.6844 6.66055 5.74219 6.68309 5.79606C6.70563 5.84993 6.73856 5.89884 6.78 5.93999C6.82144 5.98113 6.87057 6.01372 6.92461 6.03587C6.97864 6.05803 7.0365 6.06933 7.0949 6.06912C7.1533 6.06892 7.21109 6.05721 7.26496 6.03467C7.31883 6.01213 7.36774 5.9792 7.40889 5.93776L10.1244 3.22221L7.41333 0.479986Z" fill="black"/>
</svg>
