<svg width="24" height="24" viewBox="0 0 24 24" fill="none" xmlns="http://www.w3.org/2000/svg">
<path d="M8.768 2.19167C9.7985 2.05067 10.6645 2.68117 11.0745 3.50067L12.083 5.51717C12.6425 6.63617 12.321 7.94917 11.473 8.77517C10.972 9.26267 10.4685 9.81967 10.1765 10.3112C10.1572 10.3462 10.1511 10.387 10.1595 10.4262C10.4295 11.8892 11.421 13.3347 12.3055 14.3712C12.35 14.4206 12.408 14.4558 12.4724 14.4724C12.5368 14.4891 12.6047 14.4864 12.6675 14.4647L14.655 13.8437C15.1904 13.6763 15.7653 13.6849 16.2955 13.8681C16.8256 14.0513 17.2832 14.3995 17.601 14.8617L19.0395 16.9537C19.4295 17.5217 19.627 18.2917 19.328 19.0322C19.061 19.6937 18.5445 20.6477 17.605 21.2822C16.63 21.9402 15.2945 22.1902 13.547 21.5912C11.5945 20.9212 9.75001 19.2412 8.22051 17.0927C6.68201 14.9307 5.41551 12.2302 4.64751 9.41417C3.92201 6.75517 4.36001 4.96517 5.39101 3.81267C6.38551 2.70067 7.8105 2.32317 8.768 2.19167ZM9.9565 4.05967C9.728 3.60317 9.3205 3.37767 8.938 3.43017C8.0875 3.54717 7.02251 3.86367 6.32301 4.64617C5.66001 5.38767 5.20101 6.69367 5.85301 9.08517C6.58551 11.7692 7.79151 14.3342 9.23901 16.3677C10.6955 18.4142 12.3505 19.8592 13.9525 20.4087C15.38 20.8982 16.2975 20.6562 16.9055 20.2462C17.5485 19.8117 17.944 19.1212 18.169 18.5642C18.272 18.3092 18.2275 17.9792 18.0095 17.6622L16.571 15.5702C16.4046 15.3281 16.1649 15.1456 15.8873 15.0496C15.6096 14.9536 15.3084 14.9491 15.028 15.0367L13.0405 15.6577C12.4465 15.8432 11.7775 15.6777 11.355 15.1827C10.4345 14.1042 9.26151 12.4502 8.93001 10.6527C8.86664 10.3158 8.92776 9.96737 9.10201 9.67217C9.48101 9.03517 10.081 8.38567 10.6005 7.87967C11.108 7.38567 11.252 6.65067 10.965 6.07617L9.9565 4.06017V4.05967Z" fill="#424242"/>
</svg>
