<svg width="16" height="16" viewBox="0 0 16 16" fill="none" xmlns="http://www.w3.org/2000/svg">
<path d="M11.332 12.6667H12.6654V7.33333H8.66536V12.6667H9.9987V8.66667H11.332V12.6667ZM1.9987 12.6667V2.66667C1.9987 2.48986 2.06894 2.32029 2.19396 2.19526C2.31898 2.07024 2.48855 2 2.66536 2H11.9987C12.1755 2 12.3451 2.07024 12.4701 2.19526C12.5951 2.32029 12.6654 2.48986 12.6654 2.66667V6H13.9987V12.6667H14.6654V14H1.33203V12.6667H1.9987ZM4.66536 7.33333V8.66667H5.9987V7.33333H4.66536ZM4.66536 10V11.3333H5.9987V10H4.66536ZM4.66536 4.66667V6H5.9987V4.66667H4.66536Z" fill="white"/>
</svg>
