<svg width="16" height="16" viewBox="0 0 16 16" fill="none" xmlns="http://www.w3.org/2000/svg">
<g clip-path="url(#clip0_63_163)">
<path d="M10.4133 7.47999C10.3302 7.39571 10.2171 7.34789 10.0987 7.34706C9.98034 7.34622 9.8665 7.39244 9.78222 7.47554C9.69794 7.55864 9.65012 7.67182 9.64929 7.79018C9.64846 7.90853 9.69467 8.02237 9.77778 8.10665L11.4311 9.77776H3.48C3.36212 9.77776 3.24908 9.82459 3.16573 9.90794C3.08238 9.99129 3.03555 10.1043 3.03555 10.2222C3.03555 10.3401 3.08238 10.4531 3.16573 10.5365C3.24908 10.6198 3.36212 10.6667 3.48 10.6667H11.4311L9.77778 12.3111C9.73663 12.3525 9.70405 12.4017 9.68189 12.4557C9.65973 12.5097 9.64843 12.5676 9.64864 12.626C9.64885 12.6844 9.66055 12.7422 9.68309 12.7961C9.70563 12.8499 9.73856 12.8988 9.78 12.94C9.82144 12.9811 9.87057 13.0137 9.92461 13.0359C9.97864 13.058 10.0365 13.0693 10.0949 13.0691C10.1533 13.0689 10.2111 13.0572 10.265 13.0347C10.3188 13.0121 10.3677 12.9792 10.4089 12.9378L13.1244 10.2222L10.4133 7.47999Z" fill="black"/>
<path d="M5.88444 8.2C5.97272 8.20051 6.05915 8.17473 6.13272 8.12593C6.20628 8.07713 6.26365 8.00752 6.2975 7.92599C6.33135 7.84446 6.34015 7.7547 6.32279 7.66814C6.30543 7.58159 6.26268 7.50216 6.2 7.44L4.55111 5.77778H12.4978C12.6157 5.77778 12.7287 5.73095 12.812 5.6476C12.8954 5.56425 12.9422 5.45121 12.9422 5.33333C12.9422 5.21546 12.8954 5.10241 12.812 5.01906C12.7287 4.93571 12.6157 4.88889 12.4978 4.88889H4.55111L6.2 3.23111C6.24115 3.18967 6.27373 3.14053 6.29589 3.0865C6.31804 3.03247 6.32934 2.9746 6.32914 2.91621C6.32893 2.85781 6.31722 2.80002 6.29468 2.74615C6.27215 2.69228 6.23922 2.64337 6.19778 2.60222C6.15634 2.56107 6.1072 2.52849 6.05317 2.50633C5.99914 2.48418 5.94127 2.47288 5.88287 2.47309C5.76493 2.4735 5.65199 2.52075 5.56889 2.60444L2.85333 5.33333L5.56889 8.06222C5.60968 8.10502 5.6586 8.13925 5.71278 8.16291C5.76697 8.18657 5.82533 8.19918 5.88444 8.2Z" fill="black"/>
</g>
<defs>
<clipPath id="clip0_63_163">
<rect width="16" height="16" fill="white"/>
</clipPath>
</defs>
</svg>
