<svg width="32" height="32" viewBox="0 0 32 32" fill="none" xmlns="http://www.w3.org/2000/svg">
<path d="M23.9999 14.4002H22.3999V9.6002C22.3999 6.0802 19.5199 3.2002 15.9999 3.2002C12.4799 3.2002 9.5999 6.0802 9.5999 9.6002V14.4002H7.9999C7.1999 14.4002 6.3999 15.2002 6.3999 16.0002V27.2002C6.3999 28.0002 7.1999 28.8002 7.9999 28.8002H23.9999C24.7999 28.8002 25.5999 28.0002 25.5999 27.2002V16.0002C25.5999 15.2002 24.7999 14.4002 23.9999 14.4002ZM17.5999 25.6002H14.3999L15.0399 22.0802C14.2399 21.7602 13.5999 20.8002 13.5999 20.0002C13.5999 18.7202 14.7199 17.6002 15.9999 17.6002C17.2799 17.6002 18.3999 18.7202 18.3999 20.0002C18.3999 20.9602 17.9199 21.7602 16.9599 22.0802L17.5999 25.6002ZM19.1999 14.4002H12.7999V9.6002C12.7999 7.8402 14.2399 6.4002 15.9999 6.4002C17.7599 6.4002 19.1999 7.8402 19.1999 9.6002V14.4002Z" fill="#828181"/>
</svg>
