<svg width="14" height="14" viewBox="0 0 14 14" fill="none" xmlns="http://www.w3.org/2000/svg">
<path d="M1.75 3.0625V10.0625C1.75 10.2946 1.84219 10.5171 2.00628 10.6812C2.17038 10.8453 2.39294 10.9375 2.625 10.9375H11.375C11.6071 10.9375 11.8296 10.8453 11.9937 10.6812C12.1578 10.5171 12.25 10.2946 12.25 10.0625V3.0625H1.75ZM1.75 2.1875H12.25C12.4821 2.1875 12.7046 2.27969 12.8687 2.44378C13.0328 2.60788 13.125 2.83044 13.125 3.0625V10.0625C13.125 10.5266 12.9406 10.9717 12.6124 11.2999C12.2842 11.6281 11.8391 11.8125 11.375 11.8125H2.625C2.16087 11.8125 1.71575 11.6281 1.38756 11.2999C1.05937 10.9717 0.875 10.5266 0.875 10.0625V3.0625C0.875 2.83044 0.967187 2.60788 1.13128 2.44378C1.29538 2.27969 1.51794 2.1875 1.75 2.1875Z" fill="white"/>
<path d="M12.3594 3.0625L8.97575 6.93C8.72937 7.21166 8.42561 7.43738 8.08486 7.59203C7.7441 7.74669 7.37421 7.82669 7 7.82669C6.62579 7.82669 6.2559 7.74669 5.91514 7.59203C5.57439 7.43738 5.27063 7.21166 5.02425 6.93L1.64062 3.0625H12.3594ZM2.8035 3.0625L5.68225 6.35337C5.84651 6.54119 6.04902 6.69172 6.27622 6.79485C6.50342 6.89798 6.75005 6.95134 6.99956 6.95134C7.24907 6.95134 7.4957 6.89798 7.7229 6.79485C7.9501 6.69172 8.15262 6.54119 8.31687 6.35337L11.1965 3.0625H2.8035Z" fill="white"/>
</svg>
