<svg width="8" height="14" viewBox="0 0 8 14" fill="none" xmlns="http://www.w3.org/2000/svg">
<path d="M7.11111 0.777832H0.888889C0.653141 0.777832 0.427049 0.871483 0.26035 1.03818C0.0936507 1.20488 0 1.43097 0 1.66672V12.3334C0 12.5691 0.0936507 12.7952 0.26035 12.9619C0.427049 13.1286 0.653141 13.2223 0.888889 13.2223H7.11111C7.34686 13.2223 7.57295 13.1286 7.73965 12.9619C7.90635 12.7952 8 12.5691 8 12.3334V1.66672C8 1.43097 7.90635 1.20488 7.73965 1.03818C7.57295 0.871483 7.34686 0.777832 7.11111 0.777832ZM0.888889 1.66672H7.11111V9.66672H0.888889V1.66672ZM0.888889 12.3334V10.5556H7.11111V12.3334H0.888889Z" fill="white"/>
</svg>
