<svg width="24" height="24" viewBox="0 0 24 24" fill="none" xmlns="http://www.w3.org/2000/svg">
<circle cx="12" cy="12" r="12" fill="white"/>
<circle cx="12" cy="12" r="12" stroke="#E1E1E1"/>
<path d="M5 9.96656H16.5875L14.7944 11.5858C14.4038 11.9385 14.4038 12.5099 14.7944 12.8627C14.9875 13.0396 15.2437 13.1271 15.5 13.1271C15.7563 13.1271 16.0119 13.0389 16.2069 12.8625L19.7069 9.70201C20.0975 9.34927 20.0975 8.77783 19.7069 8.42509L16.2069 5.26455C15.8162 4.91182 15.1834 4.91182 14.7928 5.26455C14.4022 5.61729 14.4022 6.18873 14.7928 6.54147L16.5875 8.16054H5C4.44719 8.16054 4 8.56435 4 9.06355C4 9.56274 4.44719 9.96656 5 9.96656ZM19 14.4816H7.41563L9.20875 12.8624C9.59937 12.5097 9.59937 11.9382 9.20875 11.5855C8.81812 11.2327 8.18531 11.2327 7.79469 11.5855L4.29469 14.746C3.90406 15.0988 3.90406 15.6702 4.29469 16.0229L7.79469 19.1835C7.9875 19.3607 8.24375 19.4482 8.5 19.4482C8.75625 19.4482 9.01187 19.36 9.20687 19.1836C9.5975 18.8309 9.5975 18.2594 9.20687 17.9067L7.41563 16.2876H19C19.5528 16.2876 20 15.8838 20 15.3846C20 14.8854 19.5531 14.4816 19 14.4816Z" fill="#E67E22"/>
</svg>
