<svg width="16" height="16" viewBox="0 0 16 16" fill="none" xmlns="http://www.w3.org/2000/svg">
<path d="M1.73934 4.17733C1.86134 4.01333 2.022 3.79133 2.15067 3.63267C2.536 3.19533 2.586 3.138 2.93667 2.81467C3.04067 2.72933 3.164 2.62667 3.28467 2.53C2.39467 3.28333 2.28134 4.11733 3.098 4.63267C3.09667 4.63267 3.09667 4.63267 3.09667 4.634C4.23867 5.322 6.74134 5.17333 8.716 4.292C10.6287 3.43867 11.3347 2.218 10.3907 1.49267C9.562 1.33733 8.574 1.31933 7.52867 1.45933L7.42 1.28L7.51 0.982667C8.12467 0.927333 8.70867 0.940667 9.21267 1.02667C9.33467 1.04733 9.49534 1.08267 9.61534 1.108C9.84734 1.16467 9.97334 1.19867 10.1247 1.24733C10.2793 1.29333 10.4113 1.33933 10.6413 1.42467C10.8667 1.51333 10.964 1.55333 11.1447 1.64333C11.347 1.73564 11.5436 1.84005 11.7333 1.956C13.2373 2.902 12.302 4.628 9.648 5.81067C7.00134 6.98933 3.62867 7.17467 2.11734 6.24C2.11667 6.23867 2.11467 6.23733 2.11067 6.236H2.11334C1.288 5.71333 1.20134 4.95467 1.73934 4.17733ZM8.62534 10.7907L8.604 9.728L7.84867 8.888C5.35334 9.45333 2.90067 9.332 1.53667 8.52867C1.532 8.52333 1.52067 8.518 1.516 8.51267C0.744003 8.03733 0.553337 7.424 0.611337 6.75733C0.43067 7.73267 0.416003 8.08467 0.442003 8.91933C0.474003 9.442 0.776003 9.924 1.38334 10.304L1.388 10.3093C2.842 11.2133 5.87134 11.4093 8.62534 10.7907ZM11.7753 12.0073C8.25334 13.42 3.84534 13.5033 1.93067 12.196C2.13744 12.7013 2.41879 13.1728 2.76534 13.5947C4.52267 14.7947 8.56867 14.718 11.8 13.4213C13.6913 12.6633 14.8847 11.6547 15.198 10.7093L15.286 10.4247C15.4947 9.70333 15.534 9.10267 15.5673 8.568C15.5293 9.72867 14.162 11.0487 11.7753 12.0073ZM4.00067 14.728C4.11134 14.8333 4.45934 15.2607 6.22267 15.7327C6.69934 15.838 7.89934 16.176 10.116 15.6847L10.1293 15.4827L9.954 15.208C7.89734 15.6947 5.61267 15.532 4.00067 14.728ZM9.09 6.322L10.9627 7.74133C10.9627 7.74133 11.3633 8.03 10.9853 8.23267C10.6087 8.43333 9.64134 8.92467 9.64134 8.92467L8.686 8.568L8.20667 8.78133L9.052 9.51533L9.05867 10.6573L9.55534 10.4367L9.88467 9.472C9.88467 9.472 10.896 9.08267 11.2973 8.936C11.7007 8.79267 11.6467 9.28333 11.6467 9.28333L11.448 11.624L12.108 11.3307L13.1947 8.17267C13.1947 8.17267 13.7707 7.89267 14.176 7.64667C14.5807 7.40067 14.7193 6.99267 14.7193 6.99267C14.7193 6.99267 14.3247 6.82267 13.87 6.95933C13.4153 7.09467 12.8227 7.336 12.8227 7.336L9.748 6.03L9.09 6.322ZM5.128 1.83133L6.39934 2.844L6.74667 2.792L6.05467 1.88333C6.05467 1.88333 5.904 1.69533 6.10667 1.65067C6.31067 1.60533 6.82667 1.5 6.82667 1.5L7.21467 1.81L7.476 1.77133L7.18 1.30067L7.336 0.778667L7.08334 0.815333L6.784 1.21267C6.784 1.21267 6.25867 1.262 6.052 1.27933C5.844 1.29533 5.93334 1.072 5.93334 1.072L6.332 0L5.98267 0.0513333L5.06267 1.39067C5.06267 1.39067 4.756 1.44667 4.534 1.51C4.31134 1.57267 4.194 1.74467 4.194 1.74467C4.194 1.74467 4.35734 1.87667 4.58734 1.872C4.81934 1.86733 5.128 1.83133 5.128 1.83133ZM11.4113 14.8433L10.5887 14.4133L10.3993 14.4793L10.8867 14.9153C10.8867 14.9153 10.9907 15.004 10.8813 15.0513C10.772 15.098 10.4933 15.2127 10.4933 15.2127L10.2633 15.11L10.1267 15.1593L10.318 15.3633L10.2993 15.6613L10.442 15.612L10.5487 15.37C10.5487 15.37 10.838 15.284 10.9533 15.2533C11.068 15.222 11.042 15.3567 11.042 15.3567L10.9333 16L11.1233 15.934L11.496 15.0833C11.496 15.0833 11.6607 15.0187 11.7787 14.9593C11.8967 14.9 11.9433 14.7907 11.9433 14.7907C11.9433 14.7907 11.8387 14.7333 11.7093 14.762C11.5793 14.7893 11.4113 14.8433 11.4113 14.8433Z" fill="black"/>
</svg>
