<svg width="24" height="22" viewBox="0 0 24 22" fill="none" xmlns="http://www.w3.org/2000/svg">
<path d="M19.7143 4.85693H4.28575C2.3922 4.85693 0.857178 6.39196 0.857178 8.28551V17.7141C0.857178 19.6076 2.3922 21.1426 4.28575 21.1426H19.7143C21.6079 21.1426 23.1429 19.6076 23.1429 17.7141V8.28551C23.1429 6.39196 21.6079 4.85693 19.7143 4.85693Z" stroke="#828181" stroke-width="1.14286" stroke-linecap="round" stroke-linejoin="round"/>
<path d="M6.85718 21.1427V4.857M17.1429 21.1427V4.857M7.71432 4.857C7.71432 3.72036 8.16585 2.63027 8.96958 1.82655C9.7733 1.02282 10.8634 0.571289 12 0.571289C13.1367 0.571289 14.2268 1.02282 15.0305 1.82655C15.8342 2.63027 16.2857 3.72036 16.2857 4.857" stroke="#828181" stroke-width="1.14286" stroke-linecap="round" stroke-linejoin="round"/>
</svg>
