<svg width="21" height="21" viewBox="0 0 21 21" fill="none" xmlns="http://www.w3.org/2000/svg">
<path d="M11.5 7.99977C11.5 6.34977 10.15 4.99977 8.49999 4.99977C6.84999 4.99977 5.49999 6.34977 5.49999 7.99977C5.49999 9.64977 6.84999 10.9998 8.49999 10.9998C10.15 10.9998 11.5 9.64977 11.5 7.99977ZM8.49999 8.99977C7.94999 8.99977 7.49999 8.54977 7.49999 7.99977C7.49999 7.44977 7.94999 6.99977 8.49999 6.99977C9.04999 6.99977 9.49999 7.44977 9.49999 7.99977C9.49999 8.54977 9.04999 8.99977 8.49999 8.99977ZM15 10.9998C16.11 10.9998 17 10.1098 17 8.99977C17 7.88977 16.11 6.99977 15 6.99977C13.89 6.99977 12.99 7.88977 13 8.99977C13 10.1098 13.89 10.9998 15 10.9998ZM10.99 0.00976562C5.46999 0.00976562 0.98999 4.48977 0.98999 10.0098C0.98999 15.5298 5.46999 20.0098 10.99 20.0098C16.51 20.0098 20.99 15.5298 20.99 10.0098C20.99 4.48977 16.51 0.00976562 10.99 0.00976562ZM4.83999 15.1198C5.51999 14.5798 7.10999 14.0098 8.49999 14.0098C8.56999 14.0098 8.64999 14.0198 8.72999 14.0198C8.96999 13.3798 9.39999 12.7298 10.03 12.1598C9.52546 12.0631 9.01361 12.0096 8.49999 11.9998C7.19999 11.9998 5.10999 12.4498 3.76999 13.4298C3.26999 12.3898 2.98999 11.2298 2.98999 9.99977C2.98999 5.58977 6.57999 1.99977 10.99 1.99977C15.4 1.99977 18.99 5.58977 18.99 9.99977C18.99 11.1998 18.72 12.3398 18.24 13.3698C17.24 12.7798 15.88 12.4998 15 12.4998C13.48 12.4998 10.5 13.3098 10.5 15.1998V17.9798C9.41062 17.9178 8.34573 17.6319 7.37186 17.1398C6.398 16.6477 5.53609 15.96 4.83999 15.1198Z" fill="#828181"/>
</svg>
